<svg xmlns="http://www.w3.org/2000/svg" width="62" height="62" viewBox="0 0 62 62">
  <g id="Group_1407" data-name="Group 1407" transform="translate(-0.48)">
    <circle id="Ellipse_28" data-name="Ellipse 28" cx="31" cy="31" r="31" transform="translate(0.48)" fill="#ebfbe8"/>
    <g id="ant-design_cloud-upload-outlined" transform="translate(15.879 19.696)">
      <path id="Path_400" data-name="Path 400" d="M175.6,199.57a.259.259,0,0,0-.409,0l-3.633,4.6a.259.259,0,0,0,.2.419h2.4v7.864a.26.26,0,0,0,.26.26h1.946a.26.26,0,0,0,.26-.26v-7.861h2.4a.259.259,0,0,0,.2-.418Z" transform="translate(-160.86 -189.87)" fill="#55a747"/>
      <path id="Path_401" data-name="Path 401" d="M52.247,76.706a10.379,10.379,0,0,0-19.413,0,6.488,6.488,0,0,0,1.651,12.762h1.3a.26.26,0,0,0,.26-.26V87.259a.26.26,0,0,0-.26-.26h-1.3a4.025,4.025,0,0,1-3.169-6.5A4.065,4.065,0,0,1,33.46,79.08l1.23-.321.451-1.187A7.8,7.8,0,0,1,36.3,75.515,7.967,7.967,0,0,1,38,73.9a7.91,7.91,0,0,1,9.084,0,7.971,7.971,0,0,1,1.7,1.619,7.85,7.85,0,0,1,1.158,2.057l.448,1.184,1.226.324a4.041,4.041,0,0,1,2.988,3.9A4.013,4.013,0,0,1,50.582,87h-1.3a.26.26,0,0,0-.26.26v1.946a.26.26,0,0,0,.26.26h1.3a6.489,6.489,0,0,0,1.664-12.759Z" transform="translate(-28 -70)" fill="#55a747"/>
    </g>
  </g>
</svg>
