<svg xmlns="http://www.w3.org/2000/svg" width="16" height="16" viewBox="0 0 16 16">
  <g id="Group_606" data-name="Group 606" transform="translate(-1684 -124)">
    <rect id="Rectangle_221" data-name="Rectangle 221" width="16" height="16" transform="translate(1684 124)" fill="#fff" opacity="0"/>
    <path id="Vector" d="M4.8,7.2H3.2V8.8H4.8ZM8,7.2H6.4V8.8H8Zm3.2,0H9.6V8.8h1.6Zm1.6-5.6H12V0H10.4V1.6H4V0H2.4V1.6H1.6A1.593,1.593,0,0,0,.008,3.2L0,14.4A1.6,1.6,0,0,0,1.6,16H12.8a1.6,1.6,0,0,0,1.6-1.6V3.2A1.6,1.6,0,0,0,12.8,1.6Zm0,12.8H1.6V5.6H12.8Z" transform="translate(1684.801 124)" fill="#55a747"/>
  </g>
</svg>
