<svg id="Group_46" data-name="Group 46" xmlns="http://www.w3.org/2000/svg" width="14" height="13.125" viewBox="0 0 14 13.125">
  <path id="Path_11" data-name="Path 11" d="M12.77,18.461H10.691v-.41A2.053,2.053,0,0,0,8.641,16H5.359a2.053,2.053,0,0,0-2.051,2.051v.41H1.23A1.232,1.232,0,0,0,0,19.691v8.2a1.232,1.232,0,0,0,1.23,1.23H12.77A1.232,1.232,0,0,0,14,27.895v-8.2A1.232,1.232,0,0,0,12.77,18.461Zm-8.641-.41a1.232,1.232,0,0,1,1.23-1.23H8.641a1.232,1.232,0,0,1,1.23,1.23v.41H4.129Zm9.051,9.844a.411.411,0,0,1-.41.41H1.23a.411.411,0,0,1-.41-.41v-.41H13.18Zm0-1.23H.82v-4.33A4.46,4.46,0,0,0,4.454,24.2H5.77v.41a.41.41,0,0,0,.41.41H7.82a.41.41,0,0,0,.41-.41V24.2H9.546a4.46,4.46,0,0,0,3.633-1.869ZM6.59,24.2v-.82h.82v.82Zm6.59-4.426a3.624,3.624,0,0,1-3.633,3.606H8.23v-.41a.41.41,0,0,0-.41-.41H6.18a.41.41,0,0,0-.41.41v.41H4.454A3.624,3.624,0,0,1,.82,19.777v-.085a.411.411,0,0,1,.41-.41H12.77a.411.411,0,0,1,.41.41Z" transform="translate(0 -16)" fill="#8d8d8d"/>
</svg>
