<svg xmlns="http://www.w3.org/2000/svg" width="17.998" height="17" viewBox="0 0 17.998 17">
  <g id="Group_2133" data-name="Group 2133" transform="translate(-30 -16)">
    <path id="Path_351" data-name="Path 351" d="M34,16a4,4,0,0,1,3.874,3H46v2H37.873A4,4,0,1,1,34,16Zm0,6a2,2,0,1,0-1.414-.586A2,2,0,0,0,34,22Z" fill="#55a747" fill-rule="evenodd"/>
    <path id="Path_352" data-name="Path 352" d="M44,33a4,4,0,0,1-3.874-3H32V28h8.126A4,4,0,1,1,44,33Zm0-2a2,2,0,1,0-1.414-.586A2,2,0,0,0,44,31Z" fill="#55a747" fill-rule="evenodd"/>
  </g>
</svg>
