<svg id="Group_127" data-name="Group 127" xmlns="http://www.w3.org/2000/svg" width="16" height="16" viewBox="0 0 16 16">
  <rect id="Rectangle_35" data-name="Rectangle 35" width="16" height="16" fill="#c1c1c1" opacity="0"/>
  <g id="Group_3446" data-name="Group 3446" transform="translate(0 1)">
    <path id="Path_286" data-name="Path 286" d="M7.27,6.54A3.27,3.27,0,1,0,4,3.27,3.27,3.27,0,0,0,7.27,6.54Z" transform="translate(-0.73 0)" fill="#c1c1c1"/>
    <path id="Path_287" data-name="Path 287" d="M6.826,9.644C4.594,9.562,0,10.674,0,12.906v.817a.82.82,0,0,0,.817.817H7.8A4.864,4.864,0,0,1,6.826,9.644Zm7.423,3.278a3.2,3.2,0,0,0,.392-2.305,3.269,3.269,0,1,0-3.859,3.859,3.2,3.2,0,0,0,2.305-.392L14.609,15.6a.815.815,0,0,0,1.153-1.153l-1.512-1.529Zm-2.8-.016a1.635,1.635,0,1,1,1.635-1.635A1.64,1.64,0,0,1,11.445,12.906Z" transform="translate(0 -1.461)" fill="#c1c1c1"/>
  </g>
</svg>
